<svg width="520" height="120" viewBox="0 0 520 120" fill="none" xmlns="http://www.w3.org/2000/svg">
  <!-- Organic Resume Document -->
  <path d="M10 20H90V100H10V20Z" fill="white" stroke="#8C8C8C" stroke-width="1"/>
  
  <!-- Header Section -->
  <path d="M10 20H90V35H10V20Z" fill="#D8D8D8"/>
  <path d="M15 25H85V30H15V25Z" fill="#1565C0" stroke="#0D47A1" stroke-width="0.5"/>
  
  <!-- Name Section -->
  <path d="M15 35H85V40H15V35Z" fill="#C2E0F5"/>
  <path d="M20 37H30V38H20V37Z" fill="#0D47A1"/>
  <path d="M35 37H80V38H35V37Z" fill="#1565C0"/>
  
  <!-- Contact Info -->
  <path d="M15 42H85V47H15V42Z" fill="#C2E0F5"/>
  <path d="M20 44H25V45H20V44Z" fill="#0D47A1"/>
  <path d="M30 44H35V45H30V44Z" fill="#0D47A1"/>
  <path d="M40 44H45V45H40V44Z" fill="#0D47A1"/>
  
  <!-- Summary Section -->
  <path d="M15 50H85V55H15V50Z" fill="#C2E0F5"/>
  <path d="M20 52H80V53H20V52Z" fill="#1565C0"/>
  <path d="M20 54H80V55H20V54Z" fill="#1565C0"/>
  
  <!-- Experience Section -->
  <path d="M15 60H85V65H15V60Z" fill="#C2E0F5"/>
  <path d="M20 62H30V63H20V62Z" fill="#0D47A1"/>
  <path d="M35 62H80V63H35V62Z" fill="#1565C0"/>
  <path d="M20 64H30V65H20V64Z" fill="#0D47A1"/>
  <path d="M35 64H80V65H35V64Z" fill="#1565C0"/>
  
  <!-- Education Section -->
  <path d="M15 70H85V75H15V70Z" fill="#C2E0F5"/>
  <path d="M20 72H30V73H20V72Z" fill="#0D47A1"/>
  <path d="M35 72H80V73H35V72Z" fill="#1565C0"/>
  
  <!-- Skills Section -->
  <path d="M15 80H85V85H15V80Z" fill="#C2E0F5"/>
  <path d="M20 82H25V83H20V82Z" fill="#0D47A1"/>
  <path d="M30 82H35V83H30V82Z" fill="#0D47A1"/>
  <path d="M40 82H45V83H40V82Z" fill="#0D47A1"/>
  <path d="M50 82H55V83H50V82Z" fill="#0D47A1"/>
  
  <!-- Footer Section -->
  <path d="M15 90H85V95H15V90Z" fill="#C2E0F5"/>
  <path d="M20 92H80V93H20V92Z" fill="#1565C0"/>
  
  <!-- Subtle Shadow -->
  <path d="M10 100H90V105H10V100Z" fill="rgba(0,0,0,0.1)"/>
  
  <!-- Realistic Fold Effect -->
  <path d="M85 25Q87.5 27.5 90 30L85 30Z" fill="#B3B3B3"/>
  <path d="M90 20Q92 22 90 25L85 25Z" fill="#999999"/>

  <!-- Career Graph -->
  <defs>
    <linearGradient id="graphGradient" x1="0%" y1="0%" x2="100%" y2="0%">
      <stop offset="0%" style="stop-color:#FF6666;stop-opacity:1" />
      <stop offset="100%" style="stop-color:#66FF66;stop-opacity:1" />
    </linearGradient>
  </defs>
  <path d="M30 85L45 70L60 80L75 65L90 50L105 35L110 20" 
        stroke="url(#graphGradient)" 
        stroke-width="12" 
        stroke-linecap="round"
        stroke-linejoin="round"/>
  <path d="M115 20L120 15L125 20L120 25L115 20Z" fill="#66FF66"/>

  <!-- Logo Text -->
  <text x="120" y="52" font-family="'Space Grotesk', sans-serif" font-size="46" fill="#1565C0" font-weight="bold">
    Resume
  </text>
  <text x="170" y="100" font-family="'Space Grotesk', sans-serif" font-size="46" fill="#1565C0" font-weight="bold">
    Genie
  </text>
  <text x="298" y="64" font-family="'Space Grotesk', sans-serif" font-size="70" fill="#FF6666" font-weight="bold">
  .  
  </text>
  <text x="312" y="100" font-family="'Space Grotesk', sans-serif" font-size="64" fill="#1565C0" font-weight="bold">
    a
  </text>
  <text x="356" y="100" font-family="'Space Grotesk', sans-serif" font-size="60" fill="#1565C0" font-weight="bold">
    i
  </text>
  <text x="355" y="64" font-family="'Space Grotesk', sans-serif" font-size="70" fill="#66FF66" font-weight="bold">
  .  
  </text>
</svg>
